<?xml version="1.0" encoding="utf-8"?>
<!-- Generator: Adobe Illustrator 25.2.1, SVG Export Plug-In . SVG Version: 6.00 Build 0)  -->
<svg version="1.1" id="Layer_1" xmlns="http://www.w3.org/2000/svg" xmlns:xlink="http://www.w3.org/1999/xlink" x="0px" y="0px"
	 viewBox="0 0 919 180.6" style="enable-background:new 0 0 919 180.6;" xml:space="preserve">
<style type="text/css">
	.st0{fill:#FFFFFF;}
</style>
<g>
	<path class="st0" d="M15.7,153.1c-5.9-1.7-10-3.4-12.3-5.2c-2.3-1.7-3.4-3.9-3.4-6.5c0-2,0.6-4.7,1.7-8.3c1.1-3.6,2.7-7.8,4.9-12.7
		c2.1-4.9,4.7-10.3,7.7-16.2c3-5.9,6.4-12.3,10.2-19c-3.2,0-6.1,0-8.6,0c-2.5,0-4.6,0-6.2,0c0.7-1.9,2.8-3.5,6.3-4.8
		c3.4-1.4,8-2.5,13.6-3.5c4.8-8,9.9-15.7,15.4-22.9c5.5-7.3,11-14,16.5-20.1s11.1-11.5,16.6-16.1S89,9.6,94.1,6.8
		c0.1-0.9,0.2-1.6,0.3-2.2c0.1-0.6,0.1-1,0.1-1.3c1.7,0,4,0.4,6.9,1.3c2.9,0.9,5.7,1.9,8.5,3.1c2.8,1.2,5.2,2.5,7.4,3.8
		c2.2,1.3,3.3,2.4,3.6,3.2c-4.1,7.1-8.1,17.8-12,32c-3.9,14.2-7.2,31.2-9.8,51c-0.6,4.9-1.1,10.5-1.6,16.8c-0.4,6.3-0.6,13.3-0.6,21
		c0,2.7,0,5.5,0,8.3c0,2.8,0.1,5.8,0.4,8.9c-0.2,0.1-0.5,0.2-0.7,0.2c-0.2,0-0.7,0-1.5,0c-1.7,0-3.7-0.3-6-0.8
		c-2.3-0.5-4.5-1.2-6.6-2c-2.2-0.8-4-1.7-5.5-2.6c-1.5-1-2.5-1.8-2.9-2.5c-0.1-1.6-0.2-3.1-0.2-4.6c0-1.5,0-3.1,0-4.8
		c0-7.5,0.3-15.1,0.8-22.9c0.6-7.7,1.5-15.7,2.9-24c-1.7-1.3-4-1.9-6.8-1.9c-2.8,0-6,0-9.5,0c-3.5,0-7.3,0-11.3,0c-4,0-7.9,0-11.7,0
		c-3,5.5-5.7,10.9-8.3,16.3c-2.6,5.4-4.8,10.8-6.6,16.3c-2.1,5.8-3.8,11.6-5.1,17.5S16,148,15.7,153.1z M86.9,42.3
		c0.5-1.7,1.1-4.1,1.8-7.1c0.7-3,1.3-6.2,1.9-9.5c-3.1,1.1-6.5,3.1-10.2,6.1c-3.8,3-7.6,6.6-11.6,11c-4,4.4-8.1,9.3-12.2,14.8
		C52.4,63,48.4,68.8,44.6,75c10.3-1,22.1-1.6,35.2-1.6c1-5.2,2.1-10.3,3.2-15.5C84.3,52.8,85.5,47.6,86.9,42.3z"/>
	<path class="st0" d="M114.9,124.3c0-3.8,0.9-9.2,2.7-16.1c1.8-6.9,4.4-15,7.7-24.3c5.4-14.7,10.5-27,15.2-36.8
		c4.8-9.8,9.4-17.5,13.9-22.9c1,0.2,2.3,0.6,3.9,1.3c1.5,0.7,3,1.5,4.5,2.3c1.5,0.8,2.8,1.7,4,2.5c1.2,0.9,1.9,1.6,2.3,2.1
		c-6.8,8-12.8,16.7-17.9,25.9c-5.1,9.2-9.9,19.8-14.1,31.8c-3.7,10.3-6.5,19.5-8.4,27.8c-1.9,8.2-2.9,15.1-2.9,20.6
		c0,1.5,0,2.4,0,2.7c0,0.3,0,0.7,0.1,1c-1.2-0.2-2.3-0.5-3.1-0.9c-0.9-0.4-1.4-1-1.7-1.6c-0.2-0.4-0.7-1.1-1.4-1.9
		c-0.8-0.8-1.5-1.5-2.1-1.9c-0.8-0.5-1.4-1.9-2-4.1C115.2,129.6,114.9,127.1,114.9,124.3z"/>
	<path class="st0" d="M145.7,124.3c0-3.8,0.9-9.2,2.7-16.1c1.8-6.9,4.4-15,7.7-24.3c5.4-14.7,10.5-27,15.2-36.8
		c4.8-9.8,9.4-17.5,13.9-22.9c1,0.2,2.3,0.6,3.9,1.3c1.5,0.7,3,1.5,4.5,2.3c1.5,0.8,2.8,1.7,4,2.5c1.2,0.9,1.9,1.6,2.3,2.1
		c-6.8,8-12.8,16.7-17.9,25.9C177,67.5,172.2,78.1,168,90c-3.7,10.3-6.5,19.5-8.4,27.8c-1.9,8.2-2.9,15.1-2.9,20.6
		c0,1.5,0,2.4,0,2.7c0,0.3,0,0.7,0.1,1c-1.2-0.2-2.3-0.5-3.1-0.9c-0.9-0.4-1.4-1-1.7-1.6c-0.2-0.4-0.7-1.1-1.4-1.9
		c-0.8-0.8-1.5-1.5-2.1-1.9c-0.8-0.5-1.4-1.9-2-4.1C146,129.6,145.7,127.1,145.7,124.3z"/>
	<path class="st0" d="M222.3,31.7c-4.9,0-8.7-1.4-11.3-4.2c-2.6-2.8-4-6.1-4-10.1c0-1,0.2-2.2,0.5-3.5c0.3-1.4,0.7-2.5,1.2-3.5
		c1.6,0.4,4,0.7,7.1,0.9c3.1,0.2,6.8,0.3,11,0.3c6.3,0,13.4,0,21.3,0c7.9,0,15.5-0.4,22.8-1.1C278,9.7,284.4,9,290,8.4
		c5.5-0.7,9.1-1,10.7-1c4.5,0,7.8,1.7,9.9,5.1c2,3.4,3.5,7.9,4.5,13.6c-3.2-0.4-6.4-0.6-9.5-0.6c-3.1,0-5.8,0-8,0
		c-3.9,0-7.9,0-11.9,0c-4,0-8,0.2-12.1,0.7c-1.7,3.6-3.6,7.8-5.7,12.7c-2.1,4.9-4.2,10-6.2,15.3c-2,5.3-4,10.6-5.8,15.8
		c-1.8,5.2-3.4,10-4.8,14.1c-2.7,8.1-5.1,15.7-7.1,22.6c-2,6.9-3.8,13.3-5.3,19.3c-1.5,6-2.9,11.7-4,17.1c-1.1,5.4-2.1,10.7-3,15.9
		c-8.2-1.2-15.1-6.4-20.7-15.5c1-3.8,2.2-8,3.6-12.5c1.4-4.5,3.1-9.6,5-15.3c1.9-5.7,4.2-12.2,6.7-19.5c2.6-7.3,5.5-15.5,8.9-24.7
		c1.2-3.4,2.5-7,3.9-10.8c1.4-3.8,2.7-7.5,4-11.2c1.3-3.7,2.5-7.3,3.5-10.7c1-3.4,1.9-6.6,2.7-9.4c-5.2,0.6-10.1,1.1-14.7,1.6
		C229.9,31.5,225.8,31.7,222.3,31.7z"/>
	<path class="st0" d="M252.7,130.4c0-3.1,0.3-6.6,0.9-10.8c0.6-4.1,1.5-8.6,2.7-13.3c1.2-4.7,2.6-9.6,4.2-14.8
		c1.6-5.1,3.4-10.3,5.4-15.4c1.7-4.6,3.8-9.3,6.1-14c2.3-4.7,4.8-9.3,7.5-13.9c2.7-4.5,5.5-8.8,8.4-12.9c2.9-4.1,5.9-7.8,8.8-11.2
		c1.4,0,2.9,0.2,4.5,0.5c1.6,0.3,3.2,0.8,4.7,1.4c1.5,0.6,2.9,1.2,4.2,2c1.3,0.8,2.3,1.6,3.1,2.4c-6.5,6.7-12.4,13.5-17.7,20.3
		c-5.2,6.8-9.4,13.3-12.4,19.3c-1.7,3.3-3.2,6.4-4.5,9.3c-1.4,2.9-2.6,5.7-3.7,8.6c-1.1,2.8-2.2,5.7-3.1,8.5c-0.9,2.8-1.8,5.8-2.5,9
		c16.7-21.4,29.2-32,37.3-32c2.3,0,4.7,0.7,7.3,2.2c2.6,1.5,4.9,3.5,6.9,6c-2.7,3-5.5,6.5-8.4,10.7c-2.9,4.2-5.5,8.4-7.9,12.6
		c-2.4,4.2-4.4,8.2-5.9,11.8c-1.5,3.6-2.3,6.3-2.3,8c0,0.9,0.1,1.5,0.4,1.8c0.3,0.3,0.8,0.5,1.7,0.5c1.3,0,2.4-0.2,3.1-0.5
		c0.8-0.3,1.3-0.5,1.4-0.5c0.4,0.7,0.7,1.2,0.8,1.4c0.1,0.3,0.1,0.5,0.1,0.7c0,0.3-0.5,0.8-1.6,1.5c-1,0.7-2.3,1.3-3.7,2
		s-2.9,1.2-4.2,1.8c-1.4,0.5-2.4,0.8-3.1,0.8c-0.9,0-1.7-0.2-2.6-0.7c-0.9-0.5-1.6-1.1-2.3-1.9c-0.7-0.8-1.2-1.7-1.6-2.6
		c-0.4-1-0.6-2-0.6-3c0-1.3,0.4-3.2,1.1-5.8c0.7-2.6,1.8-5.6,3.1-9c1.3-3.4,2.9-7.2,4.7-11.3c1.8-4.1,3.8-8.3,5.9-12.6
		c0-0.3-0.2-0.5-0.5-0.5c-0.3,0-0.9,0.3-2,1c-1.1,0.7-2.1,1.4-3.1,2.1c-3.1,2.4-6.3,5.3-9.5,8.7c-3.2,3.4-6.3,7.2-9.3,11.3
		c-3,4.1-5.8,8.4-8.5,13c-2.7,4.6-4.9,9.2-6.9,13.8c-0.3,0.6-0.7,1.2-1.2,1.7c-0.5,0.5-1,0.8-1.3,0.8c-0.3,0-0.6-0.3-1.1-0.9
		c-0.5-0.6-0.9-1.4-1.3-2.3c-0.4-0.9-0.8-1.9-1.1-2.8C252.8,131.9,252.7,131.1,252.7,130.4z"/>
	<path class="st0" d="M320.5,123.9c0-0.8,0.1-1.8,0.2-2.9c0.1-1.2,0.4-2.7,0.7-4.7c0.3-2,0.8-4.3,1.4-7.1c0.6-2.8,1.3-6.1,2.2-10.1
		c0.2-0.9,0.6-2.3,1.2-4.2c0.6-1.9,1.4-3.9,2.4-6.1c1-2.1,2.2-4.2,3.7-6.2c1.4-2,3.2-3.5,5.2-4.4c1.5,0.3,3.4,1.2,5.9,2.7
		c2.4,1.4,4.5,3.4,6.3,5.9c-2,2.3-3.7,4.5-5,6.8c-1.4,2.3-2.6,4.6-3.7,7.1c-1.1,2.4-2.1,5-3,7.6c-0.9,2.6-1.9,5.4-3.1,8.2
		c-1,2.4-1.8,4.9-2.6,7.5c-0.8,2.6-1.2,4.8-1.3,6.7c0,1.6,0,2.7-0.1,3.3c0,0.7-0.3,1-0.7,1c-0.3,0-1-0.2-2.1-0.7
		c-1-0.4-2.1-1.1-3.2-2c-1.1-0.9-2.1-2.1-2.9-3.5C321,127.5,320.5,125.8,320.5,123.9z M345.5,67.1c0-0.5,0.1-1.3,0.4-2.4
		c-0.4-0.4-0.8-1.1-1.1-2c-0.3-0.9-0.5-1.7-0.5-2.4c0-0.8,0.1-1.9,0.3-3.2c0.2-1.4,0.5-2.8,0.9-4.4c0.3-1.6,0.8-3.2,1.3-4.9
		c0.5-1.7,1-3.2,1.6-4.6c1,0,2.3,0.3,3.9,0.8c1.5,0.6,3.1,1.3,4.6,2.2c1.6,0.9,3,1.9,4.3,3c1.3,1.1,2.3,2.1,3,3.1
		c-1,1-2.2,2.3-3.8,4c-1.6,1.7-3.1,3.5-4.6,5.4c-1.5,1.9-2.8,3.6-4.1,5.3c-1.2,1.7-2,2.8-2.4,3.5c-1-0.2-2-0.6-2.7-1.4
		C345.9,68.6,345.5,67.8,345.5,67.1z"/>
	<path class="st0" d="M372.4,69.2c2.3,0.7,4.4,2.2,6.4,4.6c2,2.4,3.5,5,4.4,7.9c-1,2.4-2.4,5.2-4.4,8.5c-2,3.3-4,6.7-6,10.1
		c-2,3.4-3.8,6.7-5.4,9.8c-1.6,3.1-2.5,5.6-2.8,7.6c1.4-1.5,2.9-3.2,4.6-5.2c1.7-2,3.4-3.9,5-5.9c1.6-2,3.1-3.7,4.5-5.4
		c1.4-1.6,2.5-2.8,3.3-3.6c1.7-1.7,3.6-3.8,5.9-6.1c2.3-2.3,4.6-4.5,7.1-6.5c2.5-2,5-3.8,7.5-5.2c2.5-1.4,4.8-2.2,6.9-2.2
		c2.3,0,4.2,0.8,5.7,2.3c1.5,1.5,2.7,3.1,3.6,4.8c0,0.2-0.3,0.4-1,0.7c-0.7,0.3-1.6,1.2-2.8,2.5c-1.2,1.6-2.6,3.7-4.1,6.5
		c-1.5,2.7-3,5.7-4.4,8.9c-1.4,3.2-2.6,6.4-3.6,9.7c-1,3.3-1.4,6.3-1.4,9c0,2.2,0.3,3.6,0.8,4.2c0.6,0.6,1.4,0.9,2.4,0.9
		c1,0,2-0.2,3-0.7c1-0.4,1.9-0.7,2.5-0.7c0.3,0.2,0.6,0.5,0.9,1.1c0.2,0.6,0.3,1.1,0.3,1.5c-0.7,0.6-1.5,1.2-2.5,1.8
		c-1,0.6-2,1.2-3,1.7c-1,0.5-2.1,1-3.1,1.3c-1,0.3-1.9,0.5-2.7,0.5c-2.5,0-4.6-0.4-6.2-1.1c-1.6-0.7-2.9-1.7-3.8-2.9
		c-0.9-1.2-1.5-2.7-1.9-4.4c-0.3-1.7-0.5-3.5-0.5-5.4c0-1,0.1-2.2,0.3-3.5c0.2-1.3,0.5-2.9,1-4.6c0.5-1.8,1.3-3.9,2.2-6.4
		c1-2.5,2.2-5.5,3.7-9c-0.2,0-1.4,0.6-3.5,1.8c-2.2,1.2-4.5,3.1-7.1,5.6c-4.1,3.9-7.8,7.8-11,11.6c-3.3,3.8-6.6,8.1-10,12.8
		c-1.9,2.7-3.6,5-5,6.9c-1.4,1.9-2.7,3.1-3.7,3.7c-1.8-1-3.2-2.5-4.1-4.4c-0.9-1.9-1.5-3.8-2-5.8c0-1.7,0.2-3.7,0.7-6.3
		c0.5-2.5,1.1-5.3,2-8.4c0.8-3.1,1.9-6.3,3.1-9.7c1.2-3.4,2.6-6.8,4.1-10.2c3.3-7.7,6.3-13.7,9.1-18C370,71.9,371.7,69.6,372.4,69.2
		z"/>
	<path class="st0" d="M395.4,171.6c0-0.5,0.2-1,0.5-1.4c0.3-0.4,0.7-0.9,1.2-1.3c1,1,1.9,1.7,2.7,2.2c0.7,0.5,1.4,1,2.1,1.3
		c0.7,0.3,1.3,0.6,2,0.7c0.7,0.1,1.5,0.1,2.5,0.1c4.5,0,8.8-1.2,12.9-3.6c4.1-2.4,8-5.9,11.6-10.4c3.6-4.5,6.9-10.1,9.9-16.6
		c3-6.5,5.6-13.9,7.8-22.2c-1,1-2.3,2.2-3.9,3.5c-1.5,1.3-3.1,2.5-4.8,3.6c-1.7,1.1-3.3,2.2-4.9,3.1c-1.6,1-3,1.7-4.1,2.1
		c-1.5-0.3-2.9-0.9-4.1-1.9c-1.3-1-2.4-2.2-3.3-3.7c-1-1.5-1.7-3.2-2.2-5c-0.5-1.9-0.8-3.9-0.8-5.9c0-3.4,0.6-6.9,1.9-10.5
		c1.3-3.6,2.9-7.1,5-10.5c2.1-3.4,4.6-6.7,7.4-9.7c2.8-3.1,5.8-5.7,9-8c3.2-2.3,6.4-4.1,9.7-5.4c3.3-1.4,6.5-2,9.6-2
		c3.1,0,5.3,0.6,6.9,1.9c1.5,1.3,2.6,3.4,3.3,6.5c-1-0.5-2.2-0.8-3.7-0.8c-2.1,0-4.5,0.8-7.3,2.5c-2.7,1.7-5.5,3.8-8.4,6.5
		c-2.8,2.7-5.6,5.7-8.4,9.2c-2.8,3.4-5.3,7-7.4,10.5c-2.1,3.6-3.9,7.1-5.2,10.5c-1.4,3.4-2,6.5-2,9.2c0,0.6,0,1,0.1,1.1
		c0.1,0.1,0.2,0.2,0.4,0.2c0.8,0,1.9-0.4,3.2-1.3c1.4-0.9,2.9-2,4.6-3.3c1.7-1.4,3.5-2.9,5.3-4.7c1.8-1.8,3.6-3.6,5.2-5.4
		c3.7-4.2,7.2-8.9,10.3-14.1c3.1-5.2,5.6-10.2,7.4-15.1c2.4,0.2,4.4,0.6,6.3,1.2c1.8,0.6,3.1,1.3,3.8,2c-3,6.8-5.3,12.5-7.1,17.1
		c-1.8,4.6-3.3,8.7-4.6,12.3c-2.4,6.3-4.6,12-6.6,17.2c-2,5.2-4.1,10-6.3,14.4c-2.1,4.4-4.4,8.5-6.9,12.3s-5.3,7.4-8.4,10.9
		c-1.5,1.7-3.2,3.1-5,4.4c-1.9,1.3-3.8,2.3-5.8,3.2c-2,0.9-3.9,1.5-5.8,2c-1.9,0.4-3.6,0.7-5.2,0.7c-2.1,0-4.2-0.2-6.4-0.7
		c-2.2-0.5-4.2-1.1-6.1-2c-1.9-0.8-3.5-1.8-4.9-2.9C397.1,174,396.1,172.8,395.4,171.6z"/>
	<path class="st0" d="M525.8,80.4c-0.1,1.7-0.4,3.4-0.9,5.2c-0.5,1.8-1.1,3.4-1.8,4.8c-0.7,1.4-1.4,2.6-2.2,3.6
		c-0.8,1-1.5,1.4-2.2,1.4c-1-0.1-1.5-0.7-1.7-2c0-0.3,0.1-0.7,0.3-1.2c0.2-0.6,0.5-1.2,0.7-1.9c0.3-0.7,0.5-1.4,0.7-2.1
		c0.2-0.7,0.3-1.3,0.3-1.8c0-1.2-0.3-2.2-0.8-3.1c-0.6-0.8-1.3-1.2-2.3-1.2c-3.5,0-6.1,2.2-8,6.5c-1.8,4.3-2.7,10.7-2.7,19.1
		c0,0.9,0,1.4,0.1,1.6c1.8,0,3.5,0,4.9,0s2.9,0,4.2,0c0.1,0.2,0.1,0.5,0.1,1c0,0.8-0.2,1.3-0.5,1.7c-2,0.4-3.6,0.8-4.8,1.1
		c-1.2,0.3-2.1,0.6-2.7,0.8c-0.6,0.3-1,0.5-1.1,0.8c-0.1,0.3-0.2,0.7-0.2,1.2c0,0.7,0,1.4,0.1,2.1c0,0.7,0.1,1.6,0.1,2.6
		c0,7.3-2,13.1-5.9,17.6c-4,4.4-9.5,7-16.5,7.7c-1.2-0.1-2.5-0.4-3.8-1c-1.3-0.6-2.5-1.4-3.7-2.4c-1.2-1-2.2-2-3.1-3.2
		c-0.9-1.2-1.5-2.4-1.8-3.6c0-3.3,0.7-6.5,2.1-9.6c1.4-3,3.3-5.7,5.7-8c2.4-2.3,5.2-4.2,8.5-5.7c3.3-1.4,6.8-2.2,10.7-2.2
		c0-2.2-0.2-4.3-0.7-6.4c-0.4-2.1-0.9-4.1-1.4-6.1c-0.5-2-0.9-3.9-1.4-5.8c-0.4-1.9-0.7-3.7-0.7-5.6c0-2.4,0.5-4.7,1.4-7
		c1-2.3,2.2-4.5,3.8-6.4c1.6-2,3.4-3.7,5.5-5.1c2.1-1.4,4.3-2.4,6.5-2.9c1,0.3,2.2,1,3.9,2.3c1.6,1.3,3.2,2.7,4.8,4.2
		c1.6,1.6,3,3.2,4.2,4.8C524.8,78,525.5,79.4,525.8,80.4z M482.7,140c2.1-0.9,4.1-2.1,5.9-3.8c1.9-1.7,3.5-3.5,4.9-5.6
		c1.4-2.1,2.5-4.3,3.3-6.7c0.8-2.4,1.2-4.7,1.2-6.9c-1.7,0.3-3.7,1.1-5.8,2.4c-2.1,1.4-4.1,3-5.9,4.8c-1.8,1.9-3.4,3.8-4.6,5.8
		c-1.2,2-1.8,3.7-1.8,5.2C480,137.2,480.9,138.8,482.7,140z"/>
	<path class="st0" d="M552.4,144.9c-0.6-5-1.1-10.5-1.4-16.5c-0.3-6-0.5-11.5-0.5-16.7c0-8.2,0.3-16.1,0.8-23.7
		c0.6-7.6,1.2-15.5,2-23.8c0.8-8.3,1.7-17.3,2.7-27.1c1-9.8,1.8-21.1,2.6-33.8c1.6,0,3.9,0.5,6.9,1.4c3,0.9,6.1,2,9.1,3.2
		c3.1,1.2,5.8,2.5,8.1,3.8c2.3,1.3,3.7,2.4,4.1,3.2c-2.1,4.8-4,11.1-5.6,18.9c-1.7,7.8-3,16.3-4.1,25.5c-1.1,9.2-2,18.7-2.6,28.4
		c-0.6,9.7-0.9,18.8-0.9,27.3c0,3.9,0.1,7.8,0.2,11.6c0.1,3.8,0.3,7.3,0.6,10.5c2.6-3.8,5.6-9.3,8.9-16.3c3.4-7.1,6.9-15,10.5-23.7
		c3.6-8.7,7.3-17.9,10.9-27.4c3.6-9.5,7-18.6,10.1-27.3c3.1-8.7,5.7-16.5,7.8-23.4c2.2-6.9,3.7-12.2,4.5-15.8c1.6,0,4,0.5,7.1,1.4
		c3.1,0.9,6.2,2,9.2,3.2c3,1.2,5.7,2.5,8,3.8c2.3,1.3,3.6,2.4,3.9,3.2c-2.1,4.8-4,11.1-5.6,18.9c-1.7,7.8-3,16.3-4.1,25.5
		c-1.1,9.2-2,18.7-2.6,28.4c-0.6,9.7-0.9,18.8-0.9,27.3c0,3.6,0,7.1,0.1,10.6c0.1,3.5,0.2,6.7,0.5,9.5c3.9-10.2,8-20.3,12.3-30.3
		c4.2-10,8.5-19.6,12.6-28.8c4.2-9.2,8.2-17.7,12.2-25.6c3.9-7.9,7.6-15,10.9-21.2c3.3-6.2,6.2-11.3,8.7-15.4
		c2.5-4.1,4.4-6.8,5.7-8.1c2.8,0.4,5.7,1.4,8.8,3c3,1.7,5.7,3.8,8,6.4c-3.6,2.8-7.6,7.5-12.2,13.9c-4.6,6.5-9.2,13.9-14,22.4
		s-9.6,17.5-14.5,27.1c-4.9,9.6-9.4,18.9-13.6,28c-4.2,9.1-7.9,17.6-11.2,25.5c-3.3,7.9-5.8,14.2-7.5,19c-3.2,1.5-6.3,2.2-9.4,2.2
		c-3.9-0.5-7.7-1.5-11.2-3c-3.5-1.5-6-3.3-7.5-5.3c-0.4-2-0.7-4.3-0.9-6.9c-0.2-2.6-0.4-5.3-0.6-7.8c-0.1-2.6-0.2-5.1-0.3-7.5
		c-0.1-2.4-0.1-4.5-0.1-6.2c0-10.9,0.4-22.1,1.3-33.5c0.9-11.4,1.9-23.6,3.1-36.6c-2.8,8.4-6,17.3-9.4,26.9
		c-3.4,9.6-7,19.1-10.8,28.5c-3.8,9.4-7.6,18.4-11.4,26.9c-3.9,8.5-7.7,16-11.3,22.2c-3.2,1.5-6.3,2.2-9.4,2.2
		c-3.9-0.5-7.7-1.5-11.2-3C556.4,148.8,553.9,147,552.4,144.9z"/>
	<path class="st0" d="M703.9,116.4c-5-0.5-8.9-2.7-11.9-6.5c-3-3.8-4.4-8.7-4.4-14.6c0-3.5,0.5-7.1,1.6-10.9c1-3.7,2.5-7.4,4.4-10.9
		c1.9-3.5,4.2-6.9,6.8-10c2.6-3.1,5.4-5.8,8.5-8.1c4.8-3.6,9.3-5.4,13.5-5.4c2.8,1.5,5.5,4.6,8.2,9.3c0.4,0,0.8,0,1.2-0.1
		c0.3,0,0.7-0.1,1.2-0.1c4.6,0,6.9,4.1,6.9,12.3c0,5.5-0.9,10.7-2.7,15.6c-1.8,4.9-4.3,9.4-7.5,13.4c-3.2,4-7,7.4-11.4,10.1
		C714,113.3,709.1,115.2,703.9,116.4z M710.6,75.2c-1.5,2-2.9,4.2-4.2,6.5c-1.3,2.4-2.4,4.7-3.4,7.1c-1,2.4-1.7,4.7-2.2,6.9
		c-0.5,2.2-0.8,4.2-0.8,5.9c0,2.1,0.3,4.1,1,6c0.7,1.9,1.5,3,2.4,3.3c3.9-0.9,7.5-2.5,10.8-4.9c3.3-2.4,6.1-5.4,8.5-9
		c2.4-3.6,4.3-7.6,5.6-12.2c1.4-4.5,2-9.4,2-14.5c0-2.3-0.1-4.1-0.4-5.4c-0.3-1.3-0.7-2.4-1.3-3.4c-3.8,1.1-7.3,3-10.3,5.5
		C715.4,69.7,712.8,72.4,710.6,75.2z"/>
	<path class="st0" d="M749.7,141.7c-0.6-5-1.1-10.5-1.4-16.5c-0.3-6-0.5-11.5-0.5-16.7c0-8.2,0.3-16.1,0.8-23.7
		c0.6-7.6,1.2-15.5,2-23.8c0.8-8.3,1.7-17.3,2.7-27.1c1-9.8,1.8-21.1,2.6-33.8c1.6,0,3.9,0.5,6.9,1.4c3,0.9,6.1,2,9.1,3.2
		c3.1,1.2,5.8,2.5,8.1,3.8c2.3,1.3,3.7,2.4,4.1,3.2c-2.1,4.8-4,11.1-5.6,18.9c-1.7,7.8-3,16.3-4.1,25.5c-1.1,9.2-2,18.7-2.6,28.4
		c-0.6,9.7-0.9,18.8-0.9,27.3c0,3.9,0.1,7.8,0.2,11.6c0.1,3.8,0.3,7.3,0.6,10.5c2.6-3.8,5.6-9.3,8.9-16.3c3.4-7.1,6.9-15,10.5-23.7
		c3.6-8.7,7.3-17.9,10.9-27.4c3.6-9.5,7-18.6,10.1-27.3c3.1-8.7,5.7-16.5,7.8-23.4c2.2-6.9,3.7-12.2,4.5-15.8c1.6,0,4,0.5,7.1,1.4
		c3.1,0.9,6.2,2,9.2,3.2c3,1.2,5.7,2.5,8,3.8c2.3,1.3,3.6,2.4,3.9,3.2c-2.1,4.8-4,11.1-5.6,18.9c-1.7,7.8-3,16.3-4.1,25.5
		c-1.1,9.2-2,18.7-2.6,28.4c-0.6,9.7-0.9,18.8-0.9,27.3c0,3.6,0,7.1,0.1,10.6c0.1,3.5,0.2,6.7,0.5,9.5c3.9-10.2,8-20.3,12.3-30.3
		c4.2-10,8.5-19.6,12.6-28.8c4.2-9.2,8.2-17.7,12.2-25.6c3.9-7.9,7.6-15,10.9-21.2c3.3-6.2,6.2-11.3,8.7-15.4
		c2.5-4.1,4.4-6.8,5.7-8.1c2.8,0.4,5.7,1.4,8.8,3c3,1.7,5.7,3.8,8,6.4c-3.6,2.8-7.6,7.5-12.2,13.9c-4.6,6.5-9.2,13.9-14,22.4
		s-9.6,17.5-14.5,27.1c-4.9,9.6-9.4,18.9-13.6,28c-4.2,9.1-7.9,17.6-11.2,25.5c-3.3,7.9-5.8,14.2-7.5,19c-3.2,1.5-6.3,2.2-9.4,2.2
		c-3.9-0.5-7.7-1.5-11.2-3c-3.5-1.5-6-3.3-7.5-5.3c-0.4-2-0.7-4.3-0.9-6.9c-0.2-2.6-0.4-5.3-0.6-7.8c-0.1-2.6-0.2-5.1-0.3-7.5
		c-0.1-2.4-0.1-4.5-0.1-6.2c0-10.9,0.4-22.1,1.3-33.5c0.9-11.4,1.9-23.6,3.1-36.6c-2.8,8.4-6,17.3-9.4,26.9
		c-3.4,9.6-7,19.1-10.8,28.5c-3.8,9.4-7.6,18.4-11.4,26.9c-3.9,8.5-7.7,16-11.3,22.2c-3.2,1.5-6.3,2.2-9.4,2.2
		c-3.9-0.5-7.7-1.5-11.2-3C753.7,145.5,751.2,143.7,749.7,141.7z"/>
</g>
</svg>
